<svg width="44" height="44" viewBox="0 0 44 44" fill="none" xmlns="http://www.w3.org/2000/svg">
<path d="M25.8806 28.7289C25.4828 28.9688 25.181 29.3396 25.0268 29.7778L24.715 30.6638C24.4334 31.4644 23.6771 32 22.8284 32H21.1716C20.3229 32 19.5666 31.4644 19.285 30.6638L18.9732 29.7778C18.819 29.3396 18.5172 28.9688 18.1194 28.7289L18.0687 28.6984C17.6436 28.442 17.1383 28.3529 16.6512 28.4484L15.7057 28.6337C14.8882 28.7939 14.0571 28.4307 13.6194 27.722L12.8017 26.398C12.3282 25.6315 12.4258 24.643 13.04 23.9837L13.6062 23.376C13.9511 23.0058 14.1429 22.5187 14.1429 22.0127V21.9873C14.1429 21.4813 13.9511 20.9942 13.6062 20.624L13.04 20.0163C12.4258 19.357 12.3282 18.3685 12.8017 17.602L13.6194 16.278C14.0571 15.5693 14.8882 15.2061 15.7057 15.3663L16.6512 15.5516C17.1383 15.6471 17.6436 15.558 18.0687 15.3016L18.1194 15.2711C18.5172 15.0312 18.819 14.6604 18.9732 14.2222L19.285 13.3362C19.5666 12.5356 20.3229 12 21.1716 12H22.8284C23.6771 12 24.4334 12.5356 24.715 13.3362L25.0268 14.2222C25.181 14.6604 25.4828 15.0312 25.8806 15.2711L25.9313 15.3016C26.3564 15.558 26.8617 15.6471 27.3488 15.5516L28.2943 15.3663C29.1118 15.2061 29.9429 15.5693 30.3806 16.278L31.1983 17.602C31.6718 18.3685 31.5742 19.357 30.96 20.0163L30.3938 20.624C30.0489 20.9942 29.8571 21.4813 29.8571 21.9873V22.0127C29.8571 22.5187 30.0489 23.0058 30.3938 23.376L30.96 23.9837C31.5742 24.643 31.6718 25.6315 31.1983 26.398L30.3806 27.722C29.9429 28.4307 29.1118 28.7939 28.2943 28.6337L27.3488 28.4484C26.8617 28.3529 26.3564 28.442 25.9313 28.6984L25.8806 28.7289Z" stroke="#C6CDD9" stroke-width="2"/>
<path d="M22 25C23.6569 25 25 23.6569 25 22C25 20.3431 23.6569 19 22 19C20.3431 19 19 20.3431 19 22C19 23.6569 20.3431 25 22 25Z" stroke="#C6CDD9" stroke-width="2" stroke-miterlimit="10"/>
</svg>
